<svg width="16" height="16" viewBox="0 0 16 16" fill="none" xmlns="http://www.w3.org/2000/svg">
<rect width="16" height="16" rx="8" fill="white"/>
<path d="M8.5814 8.35019V9.60643C8.07624 9.41409 7.5356 9.3551 7.00488 9.4344C6.47416 9.5137 5.96886 9.72898 5.5314 10.0622C5.09395 10.3954 4.73712 10.8367 4.49088 11.3492C4.24464 11.8617 4.11618 12.4303 4.11628 13.0073L3 13.0067C2.99983 12.2727 3.15568 11.5484 3.45561 10.8894C3.75554 10.2303 4.19159 9.65388 4.73035 9.20434C5.26911 8.75479 5.89628 8.44404 6.56381 8.29588C7.23133 8.14772 7.92149 8.16609 8.5814 8.34959V8.35019ZM7.46512 7.59765C5.61488 7.59765 4.11628 5.98376 4.11628 3.99121C4.11628 1.99865 5.61488 0.384766 7.46512 0.384766C9.31535 0.384766 10.814 1.99865 10.814 3.99121C10.814 5.98376 9.31535 7.59765 7.46512 7.59765ZM7.46512 6.3955C8.69861 6.3955 9.69768 5.31958 9.69768 3.99121C9.69768 2.66283 8.69861 1.58691 7.46512 1.58691C6.23163 1.58691 5.23256 2.66283 5.23256 3.99121C5.23256 5.31958 6.23163 6.3955 7.46512 6.3955ZM11.9302 10.0019H13.6047V11.2041H11.9302V13.3078L9.13954 10.603L11.9302 7.89818V10.0019Z" fill="#1DC7AC"/>
</svg>
