<svg width="16" height="16" viewBox="0 0 16 16" fill="none" xmlns="http://www.w3.org/2000/svg">
<rect width="16" height="16" rx="8" fill="white"/>
<path d="M7.57644 8.35019V9.60643C7.1019 9.41409 6.59402 9.3551 6.09547 9.4344C5.59692 9.5137 5.12224 9.72898 4.7113 10.0622C4.30036 10.3954 3.96516 10.8367 3.73384 11.3492C3.50252 11.8617 3.38184 12.4303 3.38194 13.0073L2.33331 13.0067C2.33315 12.2727 2.47956 11.5484 2.76131 10.8894C3.04306 10.2303 3.45269 9.65388 3.9588 9.20434C4.46491 8.75479 5.05407 8.44404 5.68113 8.29588C6.3082 8.14772 6.95653 8.16669 7.57644 8.35019ZM6.52782 7.59765C4.78972 7.59765 3.38194 5.98376 3.38194 3.99121C3.38194 1.99865 4.78972 0.384766 6.52782 0.384766C8.26591 0.384766 9.67369 1.99865 9.67369 3.99121C9.67369 5.98376 8.26591 7.59765 6.52782 7.59765ZM6.52782 6.3955C7.68655 6.3955 8.62507 5.31958 8.62507 3.99121C8.62507 2.66283 7.68655 1.58691 6.52782 1.58691C5.36909 1.58691 4.43057 2.66283 4.43057 3.99121C4.43057 5.31958 5.36909 6.3955 6.52782 6.3955ZM12.1969 10.5L12.2206 10.6205L12.2953 11L12.1969 10.5L12.2485 10.8384L12.1969 11V10.5Z" fill="#FAAD39"/>
<path d="M10.5 11L10.5 13L13 10.5L10.5 8L10.5 10L9 10L9 11L10.5 11Z" fill="#FAAD39"/>
</svg>
