<svg width="375" height="810" viewBox="0 0 375 810" fill="none" xmlns="http://www.w3.org/2000/svg">
<path d="M294 86.5154C367 57.58 414 125.515 414 125.515L423 86.5154C423 86.5154 346 29.5156 294 44.5154C242 59.5152 171 157.516 87 181.515C3 205.515 -11 170.515 -11 170.515L-16 207.515C-16 207.515 50.1873 218.378 92 212.515C184.074 199.605 221 115.451 294 86.5154Z" fill="#FFB129"/>
<path d="M113 513.737C40 542.672 -7.00002 474.737 -7.00002 474.737L-16 513.737C-16 513.737 61 570.736 113 555.737C165 540.737 236 442.736 320 418.737C404 394.737 418 429.737 418 429.737L423 392.737C423 392.737 356.813 381.874 315 387.737C222.926 400.647 186 484.801 113 513.737Z" fill="#3A4187"/>
<path d="M321.611 633.599C321.611 633.599 335.323 640.664 336.65 651.32C337.977 661.977 325.09 661.533 326.417 672.189C327.744 682.846 340.129 679.254 341.456 689.911C342.783 700.568 329.896 700.124 331.223 710.78C332.55 721.437 344.935 717.845 346.262 728.502C347.59 739.158 334.702 738.714 336.029 749.371C337.357 760.027 349.741 756.436 351.069 767.092C352.396 777.749 339.508 777.305 340.836 787.962C342.163 798.618 355.875 805.683 355.875 805.683" stroke="#1F2860"/>
<path d="M315.293 634.386C315.293 634.386 329.005 641.451 330.332 652.107C331.659 662.764 318.772 662.32 320.099 672.976C321.426 683.633 333.811 680.042 335.138 690.698C336.465 701.355 323.578 700.911 324.905 711.567C326.232 722.224 338.617 718.632 339.944 729.289C341.272 739.945 328.384 739.501 329.712 750.158C331.039 760.815 343.423 757.223 344.751 767.88C346.078 778.536 333.191 778.092 334.518 788.749C335.845 799.405 349.557 806.47 349.557 806.47" stroke="#1F2860"/>
<path d="M308.975 635.173C308.975 635.173 322.687 642.238 324.014 652.894C325.341 663.551 312.454 663.107 313.781 673.764C315.108 684.42 327.493 680.829 328.82 691.485C330.148 702.142 317.26 701.698 318.587 712.354C319.915 723.011 332.299 719.419 333.627 730.076C334.954 740.733 322.066 740.289 323.394 750.945C324.721 761.602 337.106 758.01 338.433 768.667C339.76 779.323 326.873 778.879 328.2 789.536C329.527 800.192 343.239 807.257 343.239 807.257" stroke="#1F2860"/>
<path d="M303.805 635.817C303.805 635.817 317.517 642.882 318.845 653.539C320.172 664.196 307.284 663.752 308.612 674.408C309.939 685.065 322.324 681.473 323.651 692.13C324.978 702.786 312.091 702.342 313.418 712.999C314.745 723.655 327.13 720.064 328.457 730.72C329.784 741.377 316.897 740.933 318.224 751.59C319.551 762.246 331.936 758.655 333.263 769.311C334.591 779.968 321.703 779.524 323.03 790.18C324.358 800.837 338.07 807.902 338.07 807.902" stroke="#1F2860"/>
<rect x="236" y="-23" width="171" height="162" rx="81" fill="#FFCC72"/>
<path d="M323.444 64.8102C317.11 61.9945 317.11 53.0055 323.444 50.1898L370.75 29.1592C376.041 26.8073 382 30.6798 382 36.4694L382 78.5306C382 84.3202 376.041 88.1927 370.75 85.8408L323.444 64.8102Z" fill="#01CC88"/>
<path d="M78 -27L-96 -20L-96 319C-96 319 14 366 78 274C142 182 69 117 50 74C31 31 78 -27 78 -27Z" fill="#FF2E63"/>
<rect x="-80" y="120" width="152" height="144" rx="72" fill="#01CC88"/>
<rect x="-46" y="152" width="84" height="80" rx="40" fill="#FFB129"/>
</svg>
